<svg width="128" height="128" viewBox="0 0 128 128" fill="none" xmlns="http://www.w3.org/2000/svg">
<path d="M86 118.4C86 118.1 86.1 117.8 86 117.5C85.8 117.2 85.7 117 85.5 116.8C85 116.2 84.5 115.7 83.9 115.1L78 109.1L82.6 104.4L85.1 101.7C85.5 101.3 86 100.5 86 99.9V99.5C86 98.6 85.6 98.1 84.7 97.9L84.9 98H84.2C83.6 98 81.9 99.6 81.5 100.1C80 101.6 79 103 77 104.5V92.6C77 91.5 76.4 91 75.3 91H75C73.9 91 73 91.5 73 92.6V118.5C73 119.6 73.9 120 75 120H75.3C76.4 120 77 119.5 77 118.5V113.9L80 116.8C80.9 117.7 81.8 118.3 82.6 119.1C83 119.5 83.8 120 84.4 120H84.7C85.7 120 86 119.5 86.2 118.7L86 118.8V118.4ZM125.1 98H124.7C122.5 98 120.5 98.6 118.7 99.9C115.7 102.1 114 105 114 108.8V118.6C114 119.7 114.4 120 115.5 120H115.8C116.9 120 118 119.6 118 118.6V109.4C118 107.4 118.4 105.5 119.9 104C121.1 102.8 122.6 101.8 124.3 101.8C125.6 101.8 127.1 101.5 127.1 99.9C127.1 98.7 126.2 98 125.1 98ZM109.7 103C108.6 101.2 107.1 99.8 105.2 98.9C101.7 97.2 98 97 94.6 99L94.1 99.3C92.7 100.1 91.5 101.1 90.6 102.4C88 106.2 87.7 110.5 90 114.5L90.2 114.9C91.2 116.6 92.5 118 94.2 118.9C97.8 120.9 101.7 121.1 105.3 119.1L105.6 118.9C106.6 118.3 106.8 117.3 106.3 116.3C106.1 115.9 105.7 115.6 105.3 115.4H105.1C104.4 115.3 102.5 116.1 101.8 116.4C100.4 116.6 98.8 116.7 97.4 116.2L105 109.6C106.1 108.6 107.3 107.5 108.5 106.6C109.5 105.8 110.5 104.7 109.7 103.3V103ZM102.8 106.6L94.3 113.9C94 113.6 93.8 113.2 93.6 112.9C93 111.9 92.6 110.7 92.6 109.5C92.5 106.5 93.6 104 96.3 102.5C98.3 101.3 100.5 101.1 102.7 101.9C103.8 102.3 105.1 103 105.8 104C104.8 104.9 103.7 105.7 102.8 106.6ZM22 91H21.7C20.6 91 20 91.4 20 92.5V100.6C18 98.8 15.6 98.1 12.8 98.1H12C10.1 98.1 8.3 98.4 6.6 99.4C3 101.5 1 104.6 1 108.8V109.6C1 111.5 1.5 113.1 2.5 114.8C4.6 118.4 7.9 120.2 12 120.2H12.8C14.7 120.2 16.7 119.9 18.3 119C21.9 116.9 24 113.8 24 109.7V92.7C24 91.4 23.1 91 22 91ZM18.9 112.8C17.4 115.3 15.2 116.7 12.3 116.7C11.1 116.7 9.9 116.4 8.9 115.8C6.3 114.4 4.8 112.1 4.8 109.1C4.8 108 5 107 5.5 106C6.9 103.1 9.2 101.5 12.4 101.5C14 101.5 15.4 102 16.6 102.9C18.7 104.4 19.9 106.4 19.9 109C20 110.4 19.6 111.6 18.9 112.8ZM37.6 98H37C35.1 98 33.2 98.3 31.6 99.3C28 101.4 26 104.5 26 108.7V109.5C26 111.4 26.5 113 27.5 114.7C29.6 118.3 32.9 120.1 37.1 120.1H37.9C39.8 120.1 41.7 119.8 43.4 118.9C47 116.8 49.1 113.7 49.1 109.6V108.8C49.1 107 48.5 105.5 47.7 104C45.5 100 42 98 37.6 98ZM44 112.8C42.5 115.2 40.4 116.7 37.5 116.7C36.2 116.7 34.9 116.4 33.7 115.7C31.2 114.2 29.8 112.1 29.8 109.2C29.8 108.1 30 107.1 30.5 106.1C31.9 103.2 34.2 101.6 37.4 101.6C38.9 101.6 40.2 102 41.4 102.8C43.6 104.3 44.9 106.4 44.9 109.1C45 110.3 44.7 111.6 44 112.8ZM68.5 99.4L68.4 99.5C66.7 98.4 64.8 98 62.8 98H62C60.1 98 58.2 98.3 56.6 99.3C53 101.4 51 104.5 51 108.6V109.4C51 110.4 51.2 111.3 51.4 112.3C53 117.8 57.3 120.9 63.1 120.5C64.7 120.4 69 119.9 69 117.5V117.1C69 116.2 68.3 115.4 67.5 115.2L67.4 115H66.7L66.5 115.3C65.6 115.7 64.1 116.5 63.1 116.5C61.9 116.5 60.6 116.5 59.5 115.9C56.6 114.5 54.9 112.2 54.9 109C54.9 107.9 55.1 106.9 55.6 105.9C57 103.1 59.3 101.3 62.5 101.4C63.1 101.4 64.2 101.7 64.8 102C65.3 102.2 66.6 103 67.2 103H67.4L67.5 102.8C68.4 102.6 69.1 101.9 69.1 101V100.6C69.1 100.2 68.9 99.9 68.7 99.6L68.5 99.4ZM5.8 68.2L5.9 68.4C13.8 81.8 27.6 87.4 42.7 87.4C71.9 87.4 96 74.3 107 46.8C114.4 47.2 122 45 125.6 37.9L126.5 36.1L124.7 35.1C120.4 32.6 114.7 32.3 109.9 33.7C109.3 28.5 105.9 24 101.9 20.8L100.3 19.5L99 21.1C96.3 24.2 95.5 29.4 95.9 33.4C96.2 36.3 97.1 39.3 98.9 41.7C97.5 42.5 96 43.6 94.6 44.1C91.8 45.1 88.7 46.1 85.7 46.1H79V32H66V7H51V19H26V32H13V46H1.8L1.6 47.5C1.1 53.9 1.9 60.1 4.6 66L5.8 68.2ZM66 35H77V46H66V35ZM53 9H64V20H53V9ZM53 22H64V33H53V22ZM53 35H64V46H53V35ZM40 22H51V33H40V22ZM40 35H51V46H40V35ZM41.1 66.2C41.1 67.9 39.7 69.3 38 69.3C36.3 69.3 34.9 67.9 34.9 66.2C34.9 64.5 36.3 63.1 38 63.1C39.7 63.2 41.1 64.5 41.1 66.2ZM28 22H38V33H28V22ZM28 35H38V46H28V35ZM15 35H26V46H15V35ZM17.4 73C19 73 20.6 73 22.1 72.9C26 72.7 29.4 72.2 32.2 71.4C34.5 76.7 38.7 81.6 46.2 85.2L42.7 85.3C26.9 85.2 18.4 79.9 11.4 72.9C13.5 73 15.5 73 17.4 73ZM38 68.4C39.2 68.4 40.2 67.4 40.2 66.2C40.2 65.9 40.1 65.6 40 65.4C39.8 65.7 39.6 65.9 39.2 65.9C38.7 65.9 38.3 65.5 38.3 65C38.3 64.7 38.5 64.4 38.7 64.2C38.6 64.1 38.3 64 38 64C36.8 64 35.8 65 35.8 66.2C35.9 67.4 36.8 68.4 38 68.4Z" fill="#FEFCE1"/>
</svg>
