<svg width="128" height="128" viewBox="0 0 128 128" fill="none" xmlns="http://www.w3.org/2000/svg">
<path d="M13.0002 55.2L19.9002 51.2C20.1002 51.1 20.3002 51.1 20.5002 51.2L27.4002 55.2C27.6002 55.3 27.7002 55.5 27.7002 55.7V63.7C27.7002 63.9 27.6002 64.1 27.4002 64.2L20.5002 68.2C20.3002 68.3 20.1002 68.3 19.9002 68.2L13.0002 64.2C12.8002 64.1 12.7002 63.9 12.7002 63.7V55.7C12.7002 55.5 12.8002 55.3 13.0002 55.2Z" fill="#FEFCE1"/>
<path d="M38.1001 58.9002L29.9001 44.6002C29.6001 44.1002 29.0001 43.7002 28.5001 43.7002H11.9001C11.3001 43.7002 10.7001 44.1002 10.4001 44.6002L2.2001 58.8002C1.9001 59.3002 1.9001 60.0002 2.2001 60.5002L10.4001 74.7002C10.7001 75.2002 11.3001 75.5002 11.9001 75.5002H28.4001C29.0001 75.5002 29.6001 75.2002 29.8001 74.7002L38.0001 60.5002C38.4001 60.0002 38.4001 59.4002 38.1001 58.9002ZM31.2001 65.8002C31.2001 66.0002 31.1001 66.2002 30.9001 66.3002L20.4001 72.4002C20.2001 72.5002 20.0001 72.5002 19.8001 72.4002L9.4001 66.3002C9.2001 66.2002 9.0001 66.0002 9.0001 65.8002V53.7002C9.0001 53.5002 9.1001 53.3002 9.3001 53.2002L19.8001 47.1002C20.0001 47.0002 20.2001 47.0002 20.4001 47.1002L30.9001 53.2002C31.1001 53.3002 31.2001 53.5002 31.2001 53.7002V65.8002Z" fill="#FEFCE1"/>
<path d="M47.5 48.9998H60.3V51.3998H50.3V58.3998H58.7V60.7998H50.3V68.8998H60.6V71.2998H47.5V48.9998ZM62 68.3998L63.6 66.5998C65.2 68.2998 67.5 69.2998 69.8 69.2998C72.7 69.2998 74.4 67.7998 74.4 65.6998C74.4 63.3998 72.8 62.6998 70.7 61.7998L67.5 60.3998C65.4 59.4998 63 57.8998 63 54.6998C63 51.2998 65.9 48.7998 70 48.7998C72.7 48.7998 75 49.8998 76.6 51.4998L75.1 53.2998C73.7 52.0998 72 51.2998 70 51.2998C67.5 51.2998 65.9 52.5998 65.9 54.5998C65.9 56.6998 67.8 57.4998 69.6 58.2998L72.8 59.6998C75.4 60.7998 77.4 62.2998 77.4 65.5998C77.4 69.0998 74.6 71.8998 69.8 71.8998C66.6 71.6998 63.9 70.3998 62 68.3998ZM79.9 48.9998H82.7V68.7998H92.4V71.1998H79.9V48.9998ZM93.9 49.5998C93.9 48.4998 94.7 47.7998 95.8 47.7998C96.9 47.7998 97.7 48.4998 97.7 49.5998C97.7 50.6998 96.9 51.3998 95.8 51.3998C94.7 51.3998 93.9 50.6998 93.9 49.5998ZM94.4 54.7998H97.2V71.2998H94.4V54.7998ZM101 54.7998H103.3L103.5 57.1998H103.6C105.2 55.5998 106.9 54.3998 109.1 54.3998C112.6 54.3998 114.1 56.5998 114.1 60.7998V71.1998H111.3V61.1998C111.3 58.0998 110.3 56.7998 108.2 56.7998C106.5 56.7998 105.4 57.6998 103.7 59.2998V71.1998H101V54.7998ZM118.2 66.0998V57.0998H115.8V54.9998L118.4 54.7998L118.7 49.4998H121V54.7998H125.4V57.0998H121V66.1998C121 68.1998 121.6 69.3998 123.5 69.3998C124.1 69.3998 124.7 69.2998 125.4 68.9998L126 70.9998C125.1 71.3998 124 71.6998 122.9 71.6998C119.4 71.5998 118.2 69.3998 118.2 66.0998Z" fill="#FEFCE1"/>
</svg>
