<svg width="128" height="128" viewBox="0 0 128 128" fill="none" xmlns="http://www.w3.org/2000/svg">
<path d="M76.0041 50.5879C68.3491 50.5879 64.5451 54.5839 64.5451 60.3379C64.5451 64.0419 66.3971 66.6659 68.8491 67.8669C67.6481 68.9679 66.6481 69.9309 65.7471 70.8809C64.8451 71.8329 64.2951 72.8379 64.2951 73.9399C64.2951 75.2919 64.8451 76.5449 66.4971 77.2429C64.7461 78.8969 63.7441 80.0969 63.7441 82.3499C63.7441 86.3029 67.1971 88.6059 76.2551 88.6059C84.9631 88.6059 90.0161 85.3549 90.0161 79.5989C90.0161 72.9459 84.9131 72.6949 76.2551 72.1429L71.3511 71.8429L73.0031 69.1909C73.9021 69.4409 75.3551 69.6409 76.9581 69.6409C83.2621 69.6409 87.6161 66.3889 87.6161 60.8329C87.6161 58.5309 86.4791 56.9299 85.5791 55.7779L90.0001 55.4279V50.9999H80.6091C79.4591 50.9999 78.1561 50.5879 76.0041 50.5879ZM78.2561 79.0989C80.6601 79.2489 82.5621 79.3489 82.5621 80.9529C82.5621 83.6519 78.6071 83.8549 75.7061 83.8549C72.2021 83.8549 69.6501 83.2529 69.6501 81.2519C69.6501 80.2499 70.3001 79.3999 70.9521 78.5999L78.2561 79.0989ZM76.3071 64.3869C73.0031 64.3869 71.6521 62.6839 71.6521 60.2329C71.6521 56.9799 73.7031 55.6279 76.4561 55.6279C79.3081 55.6279 81.0101 57.1799 81.0101 60.1319C81.0101 62.7359 79.1081 64.3869 76.3071 64.3869ZM99.1731 46.6849C102.075 46.6849 103.727 45.0329 103.727 42.1789C103.727 39.3289 102.075 37.7759 99.1731 37.7759C96.3201 37.7759 94.6681 39.3289 94.6681 42.1789C94.6681 45.0319 96.3201 46.6849 99.1731 46.6849ZM103 71.4549V50.9999H93.2671L92.7171 54.8959L95.3841 55.7699C95.8861 55.9189 96.0001 56.1929 96.0001 56.7429V71.4549C96.0001 72.2069 95.5781 72.3569 94.8771 72.4579L92.0001 72.8079V76.9999H107V72.8079L104.124 72.4579C103.371 72.3569 103 72.2579 103 71.4549ZM125.418 70.4149C124.216 70.8649 122.786 71.2139 121.383 71.2139C118.682 71.2139 118 70.0639 118 67.1109V54.9999H125V49.9999H118.362C117.961 49.9999 118 49.9969 118 49.6469V42.9999H113.207C112.657 47.9999 110 50.1959 106 50.6979V54.9999H110.003C110.404 54.9999 110 55.3529 110 55.6519V68.7629C110 74.4199 112.454 76.8209 118.408 76.8209C121.262 76.8209 124.515 75.8699 126.668 74.8199L125.418 70.4149ZM29.7381 38.8059C29.4247 38.4925 29.0527 38.2439 28.6432 38.0743C28.2337 37.9046 27.7948 37.8173 27.3516 37.8173C26.9084 37.8173 26.4695 37.9046 26.0601 38.0743C25.6506 38.2439 25.2785 38.4925 24.9651 38.8059L20.2141 43.5569L26.2411 49.5839C26.9519 49.3419 27.7163 49.3044 28.4473 49.4758C29.1783 49.6472 29.8464 50.0204 30.3755 50.5531C30.9046 51.0858 31.2735 51.7564 31.4399 52.4885C31.6064 53.2206 31.5639 53.9848 31.3171 54.6939L37.1261 60.5029C37.9846 60.2043 38.919 60.2061 39.7764 60.508C40.6337 60.8099 41.3631 61.3939 41.8452 62.1645C42.3272 62.935 42.5333 63.8464 42.4298 64.7494C42.3262 65.6524 41.9191 66.4935 41.2751 67.1349C40.9023 67.5081 40.4596 67.8042 39.9723 68.0062C39.485 68.2082 38.9627 68.3122 38.4351 68.3122C37.9076 68.3122 37.3853 68.2082 36.8979 68.0062C36.4106 67.8042 35.9679 67.5081 35.5951 67.1349C34.4151 65.9539 33.9711 64.2209 34.5701 62.7669L29.0001 57.3499V71.6069C29.0001 71.7959 29.8951 72.0479 30.2141 72.3659C31.7821 73.9339 31.8581 76.4759 30.2891 78.0469C29.9198 78.4194 29.4804 78.7152 28.9962 78.917C28.5121 79.1188 27.9927 79.2227 27.4681 79.2227C26.9436 79.2227 26.4242 79.1188 25.94 78.917C25.4558 78.7152 25.0164 78.4194 24.6471 78.0469C23.0791 76.4759 23.0981 73.9349 24.6671 72.3659C25.0551 71.9789 25.0001 71.6859 26.0001 71.4899V57.1009C25.0001 56.9049 25.0731 56.6139 24.6861 56.2249C24.1227 55.6615 23.7396 54.9432 23.5856 54.1615C23.4316 53.3798 23.5136 52.5699 23.8211 51.8349L17.8791 45.8919L2.19013 61.5809C1.87646 61.8942 1.62762 62.2663 1.45784 62.6759C1.28807 63.0855 1.20068 63.5245 1.20068 63.9679C1.20068 64.4112 1.28807 64.8503 1.45784 65.2598C1.62762 65.6694 1.87646 66.0415 2.19013 66.3549L25.0721 89.2359C25.7053 89.8683 26.5637 90.2236 27.4586 90.2236C28.3536 90.2236 29.2119 89.8683 29.8451 89.2359L52.6201 66.4599C53.2526 65.8265 53.6079 64.968 53.6079 64.0729C53.6079 63.1778 53.2526 62.3192 52.6201 61.6859L29.7381 38.8059Z" fill="#FEFCE1"/>
</svg>
