<svg width="128" height="128" viewBox="0 0 128 128" fill="none" xmlns="http://www.w3.org/2000/svg">
<path fill-rule="evenodd" clip-rule="evenodd" d="M64.0001 1.51221C40.5071 1.51221 21.4551 20.5592 21.4551 44.0572C21.4551 62.8542 33.6451 78.8022 50.5501 84.4272C52.6761 84.8212 53.4571 83.5042 53.4571 82.3802C53.4571 81.3662 53.4171 78.0142 53.3991 74.4602C41.5621 77.0332 39.0651 69.4402 39.0651 69.4402C37.1301 64.5222 34.3411 63.2142 34.3411 63.2142C30.4811 60.5742 34.6311 60.6282 34.6311 60.6282C38.9041 60.9282 41.1541 65.0132 41.1541 65.0132C44.9481 71.5172 51.1071 69.6362 53.5341 68.5492C53.9171 65.7992 55.0191 63.9212 56.2361 62.8592C46.7861 61.7842 36.8521 58.1352 36.8521 41.8332C36.8521 37.1882 38.5141 33.3932 41.2361 30.4132C40.7941 29.3412 39.3381 25.0132 41.6481 19.1532C41.6481 19.1532 45.2201 18.0112 53.3481 23.5162C56.7431 22.5732 60.3831 22.1002 63.9981 22.0842C67.6141 22.1012 71.2561 22.5742 74.6561 23.5162C82.7761 18.0122 86.3441 19.1542 86.3441 19.1542C88.6601 25.0142 87.2041 29.3412 86.7621 30.4142C89.4901 33.3922 91.1401 37.1882 91.1401 41.8342C91.1401 58.1742 81.1871 61.7722 71.7131 62.8242C73.2391 64.1442 74.5991 66.7342 74.5991 70.7042C74.5991 76.3962 74.5511 80.9772 74.5511 82.3782C74.5511 83.5082 75.3171 84.8362 77.4731 84.4182C94.3691 78.7862 106.543 62.8442 106.543 44.0532C106.545 20.5602 87.4971 1.51221 64.0001 1.51221Z" fill="#FEFCE1"/>
<path d="M37.5702 62.5964C37.4752 62.8084 37.1422 62.8714 36.8402 62.7264C36.5302 62.5864 36.3582 62.2994 36.4582 62.0864C36.5482 61.8704 36.8822 61.8094 37.1912 61.9544C37.5012 62.0944 37.6772 62.3844 37.5712 62.5964H37.5702ZM39.2932 64.5204C39.0902 64.7074 38.6932 64.6204 38.4232 64.3224C38.1452 64.0254 38.0932 63.6284 38.2992 63.4384C38.5072 63.2504 38.8922 63.3384 39.1692 63.6354C39.4492 63.9354 39.5042 64.3284 39.2922 64.5194L39.2932 64.5204ZM40.9702 66.9684C40.7102 67.1504 40.2832 66.9804 40.0202 66.6014C39.7582 66.2244 39.7582 65.7714 40.0252 65.5884C40.2892 65.4064 40.7092 65.5704 40.9752 65.9454C41.2372 66.3304 41.2372 66.7854 40.9702 66.9694V66.9684ZM43.2682 69.3364C43.0352 69.5934 42.5382 69.5244 42.1752 69.1734C41.8032 68.8304 41.7002 68.3434 41.9332 68.0864C42.1702 67.8294 42.6692 67.9014 43.0352 68.2494C43.4052 68.5914 43.5172 69.0794 43.2682 69.3354V69.3364ZM46.4402 70.7104C46.3362 71.0444 45.8582 71.1954 45.3762 71.0544C44.8942 70.9084 44.5802 70.5184 44.6762 70.1824C44.7762 69.8464 45.2582 69.6894 45.7432 69.8404C46.2232 69.9844 46.5382 70.3704 46.4392 70.7104H46.4402ZM49.9202 70.9654C49.9332 71.3154 49.5242 71.6074 49.0182 71.6134C48.5102 71.6254 48.0982 71.3414 48.0922 70.9954C48.0922 70.6414 48.4922 70.3534 49.0002 70.3454C49.5062 70.3354 49.9202 70.6174 49.9202 70.9654ZM53.1602 70.4144C53.2202 70.7564 52.8702 71.1084 52.3672 71.2014C51.8732 71.2934 51.4172 71.0814 51.3532 70.7414C51.2932 70.3914 51.6502 70.0414 52.1432 69.9494C52.6462 69.8614 53.0962 70.0674 53.1602 70.4154V70.4144Z" fill="#FEFCE1"/>
<path d="M24.8551 108.302H14.1551C14.0225 108.302 13.8953 108.355 13.8016 108.448C13.7078 108.542 13.6551 108.669 13.6551 108.802V114.034C13.6551 114.167 13.7078 114.294 13.8016 114.388C13.8953 114.481 14.0225 114.534 14.1551 114.534H18.3281V121.034C18.3281 121.034 17.3911 121.354 14.7981 121.354C11.7421 121.354 7.47113 120.238 7.47113 110.846C7.47113 101.453 11.9191 100.216 16.0951 100.216C19.7091 100.216 21.2651 100.852 22.2571 101.159C22.5671 101.253 22.8571 100.943 22.8571 100.667L24.0501 95.612C24.0521 95.5363 24.0356 95.4613 24.0022 95.3934C23.9687 95.3254 23.9193 95.2666 23.8581 95.222C23.4551 94.934 21.0011 93.562 14.8001 93.562C7.65613 93.562 0.328125 96.6 0.328125 111.212C0.328125 125.822 8.71812 127.999 15.7881 127.999C21.6421 127.999 25.1931 125.497 25.1931 125.497C25.3391 125.417 25.3551 125.212 25.3551 125.117V108.801C25.3551 108.668 25.3024 108.541 25.2087 108.447C25.1149 108.354 24.9877 108.301 24.8551 108.301V108.302ZM79.5061 94.81H73.4801C73.4144 94.8103 73.3493 94.8235 73.2887 94.8489C73.2281 94.8744 73.1731 94.9115 73.1268 94.9582C73.0805 95.005 73.044 95.0603 73.0191 95.1212C72.9943 95.1821 72.9817 95.2473 72.9821 95.313L72.9841 106.957H63.5921V95.313C63.5925 95.2474 63.58 95.1823 63.5552 95.1214C63.5305 95.0606 63.494 95.0053 63.4478 94.9586C63.4017 94.9119 63.3468 94.8747 63.2862 94.8492C63.2257 94.8237 63.1608 94.8104 63.0951 94.81H57.0701C57.0044 94.8103 56.9393 94.8235 56.8787 94.8489C56.8181 94.8744 56.7631 94.9115 56.7168 94.9582C56.6705 95.005 56.634 95.0603 56.6091 95.1212C56.5843 95.1821 56.5717 95.2473 56.5721 95.313V126.843C56.5721 127.12 56.7961 127.346 57.0701 127.346H63.0951C63.1609 127.346 63.2259 127.332 63.2865 127.307C63.347 127.281 63.402 127.244 63.4482 127.197C63.4943 127.15 63.5308 127.095 63.5555 127.034C63.5802 126.973 63.5927 126.908 63.5921 126.842V113.356H72.9841L72.9681 126.842C72.9681 127.12 73.1921 127.346 73.4681 127.346H79.5061C79.5719 127.346 79.6369 127.332 79.6975 127.307C79.758 127.281 79.813 127.244 79.8592 127.197C79.9053 127.15 79.9418 127.095 79.9665 127.034C79.9912 126.973 80.0036 126.908 80.0031 126.842V95.312C80.0038 95.2463 79.9914 95.1812 79.9667 95.1203C79.9421 95.0594 79.9056 95.004 79.8593 94.9573C79.8131 94.9107 79.7581 94.8736 79.6975 94.8483C79.6368 94.823 79.5718 94.81 79.5061 94.81ZM32.3401 95.527C30.1961 95.527 28.4561 97.28 28.4561 99.45C28.4561 101.617 30.1961 103.375 32.3401 103.375C34.4861 103.375 36.2251 101.617 36.2251 99.45C36.2251 97.28 34.4851 95.527 32.3401 95.527ZM35.2961 105.135H29.2901C29.0141 105.135 28.7681 105.419 28.7681 105.695V126.547C28.7681 127.16 29.1501 127.342 29.6441 127.342H35.0541C35.6491 127.342 35.7941 127.05 35.7941 126.537V105.638C35.7944 105.572 35.7817 105.507 35.7568 105.447C35.7319 105.386 35.6953 105.33 35.6491 105.284C35.6028 105.237 35.5479 105.2 35.4873 105.175C35.4268 105.149 35.3618 105.136 35.2961 105.136V105.135ZM102.902 105.182H96.9221C96.8565 105.183 96.7915 105.196 96.7311 105.222C96.6706 105.247 96.6158 105.284 96.5697 105.331C96.5237 105.378 96.4873 105.434 96.4626 105.494C96.438 105.555 96.4256 105.62 96.4261 105.686V121.146C96.4261 121.146 94.9061 122.256 92.7511 122.256C90.5961 122.256 90.0241 121.279 90.0241 119.168V105.686C90.0247 105.62 90.0122 105.555 89.9875 105.494C89.9628 105.433 89.9263 105.378 89.8802 105.331C89.834 105.284 89.779 105.247 89.7185 105.221C89.6579 105.196 89.5929 105.182 89.5271 105.182H83.4591C83.3263 105.183 83.1994 105.237 83.106 105.331C83.0127 105.426 82.9606 105.553 82.9611 105.686V120.188C82.9611 126.458 86.4561 127.992 91.2631 127.992C95.2071 127.992 98.3871 125.812 98.3871 125.812C98.3871 125.812 98.5371 126.962 98.6071 127.097C98.6771 127.233 98.8541 127.37 99.0471 127.37L102.907 127.353C102.973 127.353 103.038 127.34 103.099 127.314C103.16 127.289 103.215 127.251 103.262 127.205C103.308 127.158 103.345 127.102 103.37 127.041C103.395 126.98 103.407 126.915 103.407 126.849L103.404 105.683C103.404 105.55 103.351 105.423 103.257 105.329C103.164 105.235 103.037 105.182 102.904 105.181L102.902 105.182ZM119.244 104.474C115.848 104.474 113.538 105.989 113.538 105.989V95.312C113.539 95.2464 113.526 95.1813 113.501 95.1204C113.476 95.0596 113.44 95.0043 113.394 94.9576C113.348 94.9109 113.293 94.8737 113.232 94.8482C113.172 94.8227 113.107 94.8094 113.041 94.809H107C106.934 94.809 106.869 94.822 106.808 94.8474C106.747 94.8727 106.692 94.9098 106.646 94.9565C106.599 95.0033 106.562 95.0587 106.537 95.1198C106.512 95.1808 106.5 95.2461 106.5 95.312V126.842C106.5 126.908 106.512 126.973 106.537 127.034C106.562 127.095 106.599 127.151 106.646 127.198C106.692 127.244 106.747 127.281 106.808 127.307C106.869 127.332 106.934 127.345 107 127.345H111.192C111.382 127.345 111.524 127.248 111.629 127.077C111.732 126.907 111.883 125.623 111.883 125.623C111.883 125.623 114.353 127.963 119.031 127.963C124.521 127.963 127.671 125.179 127.671 115.461C127.671 105.743 122.641 104.473 119.243 104.473L119.244 104.474ZM116.884 122.238C114.811 122.175 113.404 121.234 113.404 121.234V111.249C113.404 111.249 114.792 110.399 116.494 110.245C118.647 110.052 120.722 110.703 120.722 115.839C120.722 121.256 119.787 122.325 116.885 122.237L116.884 122.238ZM53.1951 122.12C52.9321 122.12 52.2581 122.227 51.5651 122.227C49.3451 122.227 48.5921 121.195 48.5921 119.859V110.993H53.1121C53.1781 110.993 53.2435 110.98 53.3044 110.955C53.3653 110.929 53.4206 110.892 53.4671 110.845C53.5136 110.798 53.5503 110.743 53.5752 110.682C53.6001 110.62 53.6127 110.555 53.6121 110.489V105.633C53.6124 105.567 53.5997 105.502 53.5746 105.441C53.5496 105.38 53.5128 105.325 53.4664 105.278C53.4199 105.232 53.3647 105.195 53.3039 105.169C53.2431 105.144 53.178 105.131 53.1121 105.131H48.5921L48.5851 99.161C48.5851 98.934 48.4691 98.821 48.2071 98.821H42.0471C41.8091 98.821 41.6801 98.927 41.6801 99.156V105.326C41.6801 105.326 38.5931 106.071 38.3851 106.131C38.2813 106.161 38.19 106.224 38.1251 106.311C38.0602 106.398 38.0251 106.503 38.0251 106.611V110.488C38.0247 110.554 38.0373 110.619 38.062 110.68C38.0868 110.74 38.1233 110.796 38.1694 110.842C38.2156 110.889 38.2705 110.926 38.331 110.952C38.3915 110.977 38.4565 110.991 38.5221 110.991H41.6801V120.319C41.6801 127.249 46.5401 127.929 49.8201 127.929C51.3171 127.929 53.1101 127.449 53.4061 127.339C53.5861 127.272 53.6891 127.087 53.6891 126.886L53.6931 122.621C53.6911 122.489 53.6378 122.363 53.5445 122.269C53.4513 122.175 53.3253 122.122 53.1931 122.119L53.1951 122.12Z" fill="#FEFCE1"/>
</svg>
