<svg width="128" height="128" viewBox="0 0 128 128" fill="none" xmlns="http://www.w3.org/2000/svg">
<path d="M108.023 16H61.8052C61.8052 27.52 71.1332 36.848 82.6522 36.848H91.1522V45.074C91.1522 56.594 100.48 65.922 112 65.922V19.977C112 18.9223 111.581 17.9109 110.835 17.1651C110.089 16.4194 109.078 16.0003 108.023 16Z" fill="#FEFCE1"/>
<path d="M85.1209 39.0401H38.9019C38.9019 50.5591 48.2269 59.8871 59.7459 59.8871H68.2499V68.1131C68.2499 79.6331 77.5779 88.9611 89.0979 88.9611V43.0161C89.0963 41.9618 88.6768 40.9511 87.9313 40.2057C87.1858 39.4602 86.1751 39.0406 85.1209 39.0391V39.0401Z" fill="#FEFCE1"/>
<path d="M62.219 62.0781H16C16 73.5981 25.324 82.9261 36.844 82.9261H45.348V91.1521C45.348 102.676 54.676 112 66.195 112V66.0591C66.1939 65.0046 65.7748 63.9935 65.0295 63.2474C64.2842 62.5014 63.2735 62.0812 62.219 62.0791V62.0781Z" fill="#FEFCE1"/>
</svg>
