<svg width="128" height="128" viewBox="0 0 128 128" fill="none" xmlns="http://www.w3.org/2000/svg">
<path d="M11.95 24.3482C6.11403 24.3482 1.33203 29.2152 1.33203 35.0292V92.9712C1.33203 98.7852 6.11403 103.652 11.949 103.652H116.051C121.886 103.652 126.668 98.7852 126.668 92.9712V35.0302C126.668 29.2162 121.885 24.3492 116.051 24.3492H14.898L14.896 24.3472H11.95V24.3482ZM11.943 33.8912H116.051C116.676 33.8912 117.127 34.3142 117.127 35.0312V92.9712C117.127 93.6882 116.674 94.1112 116.051 94.1112H11.949C11.326 94.1112 10.873 93.6882 10.873 92.9712V35.0292C10.873 34.3142 11.324 33.8942 11.943 33.8912Z" fill="#FEFCE1"/>
<path d="M20.7212 84.0999V43.8999H32.4202L44.1172 58.6799L55.8102 43.8999H67.5062V84.0999H55.8102V61.0439L44.1162 75.8239L32.4182 61.0439V84.0999H20.7222H20.7212ZM93.8252 84.0999L76.2802 64.5909H87.9772V43.8999H99.6752V64.5899H111.373L93.8252 84.0999Z" fill="#FEFCE1"/>
</svg>
