<svg width="128" height="128" viewBox="0 0 128 128" fill="none" xmlns="http://www.w3.org/2000/svg">
<path d="M30.2 45.8999H54.3V47.7999H32.4V62.1999H53V64.0999H32.4V79.8999H54.6V81.7999H30.2V45.8999ZM56.5 45.8999H59.1L70.5 61.6999L82 45.8999L97.8 25.8999L71.8 63.3999L85.2 81.7999H82.5L70.4 64.9999L58.2 81.7999H55.6L69.1 63.3999L56.5 45.8999ZM86.2 47.7999V45.8999H113.7V47.7999H101V81.7999H98.8V47.7999H86.2ZM0 45.8999H2.7L40.9 102.7L25.1 81.7999L2.3 48.5999L2.2 81.7999H0V45.8999ZM113.5 79.2999C114 79.2999 114.3 78.9999 114.3 78.4999C114.3 77.9999 114 77.6999 113.5 77.6999C113 77.6999 112.7 77.9999 112.7 78.4999C112.7 78.9999 113.1 79.2999 113.5 79.2999ZM115.7 77.1999C115.7 78.4999 116.7 79.3999 118.1 79.3999C119.6 79.3999 120.5 78.4999 120.5 76.8999V71.3999H119.3V76.8999C119.3 77.7999 118.9 78.1999 118.1 78.1999C117.4 78.1999 116.9 77.7999 116.9 77.0999H115.7V77.1999ZM122 77.0999C122.1 78.4999 123.2 79.3999 125 79.3999C126.8 79.3999 128 78.4999 128 76.9999C128 75.7999 127.3 75.1999 125.8 74.7999L124.9 74.5999C123.9 74.3999 123.5 73.9999 123.5 73.4999C123.5 72.7999 124.1 72.2999 125.1 72.2999C126 72.2999 126.6 72.6999 126.7 73.4999H127.9C127.8 72.1999 126.7 71.2999 125.1 71.2999C123.4 71.2999 122.3 72.1999 122.3 73.5999C122.3 74.6999 122.9 75.3999 124.3 75.6999L125.3 75.8999C126.3 76.0999 126.8 76.4999 126.8 77.0999C126.8 77.7999 126.1 78.2999 125.1 78.2999C124.1 78.2999 123.3 77.7999 123.2 77.0999H122Z" fill="#FEFCE1"/>
</svg>
