<svg width="128" height="128" viewBox="0 0 128 128" fill="none" xmlns="http://www.w3.org/2000/svg">
<path d="M64.0002 56.8002C69.1364 56.8002 73.3002 52.6364 73.3002 47.5002C73.3002 42.3639 69.1364 38.2002 64.0002 38.2002C58.8639 38.2002 54.7002 42.3639 54.7002 47.5002C54.7002 52.6364 58.8639 56.8002 64.0002 56.8002Z" fill="#FEFCE1"/>
<path d="M64.0001 81.7001C71.3001 88.8001 78.5001 93.0001 84.3001 93.0001C86.2001 93.0001 88.0001 92.6001 89.5001 91.7001C94.7001 88.7001 96.6001 81.2001 94.8001 70.5001C94.5001 68.6001 94.1001 66.7001 93.6001 64.7001C95.6001 64.1001 97.4001 63.5001 99.2001 62.9001C109.3 59.0001 114.9 53.6001 114.9 47.7001C114.9 41.7001 109.3 36.3001 99.2001 32.5001C97.4001 31.8001 95.6001 31.2001 93.6001 30.7001C94.1001 28.7001 94.5001 26.8001 94.8001 24.9001C96.5001 14.0001 94.6001 6.4001 89.4001 3.4001C87.9001 2.5001 86.1001 2.1001 84.2001 2.1001C78.5001 2.1001 71.2001 6.3001 63.9001 13.4001C56.7001 6.3001 49.5001 2.1001 43.7001 2.1001C41.8001 2.1001 40.0001 2.5001 38.5001 3.4001C33.3001 6.4001 31.4001 13.9001 33.2001 24.6001C33.5001 26.5001 33.9001 28.4001 34.4001 30.4001C32.4001 31.0001 30.6001 31.6001 28.8001 32.2001C18.7001 36.1001 13.1001 41.5001 13.1001 47.4001C13.1001 53.4001 18.7001 58.8001 28.8001 62.6001C30.6001 63.3001 32.4001 63.9001 34.4001 64.4001C33.9001 66.4001 33.5001 68.3001 33.2001 70.2001C31.5001 80.9001 33.4001 88.5001 38.5001 91.4001C40.0001 92.3001 41.8001 92.7001 43.7001 92.7001C49.5001 92.9001 56.7001 88.7001 64.0001 81.7001ZM58.4001 68.2001C60.2001 68.3001 62.1001 68.3001 64.0001 68.3001C65.9001 68.3001 67.8001 68.3001 69.6001 68.2001C67.8001 70.6001 65.9001 72.8001 64.0001 74.9001C62.1001 72.8001 60.2001 70.6001 58.4001 68.2001ZM46.0001 57.9001C47.0001 59.6001 47.9001 61.2001 49.0001 62.8001C45.9001 62.4001 43.0001 61.9001 40.2001 61.3001C41.1001 58.6001 42.1001 55.8001 43.3001 53.0001C44.1001 54.6001 45.0001 56.3001 46.0001 57.9001ZM40.2001 33.8001C43.0001 33.2001 45.9001 32.7001 49.0001 32.3001C48.0001 33.9001 47.0001 35.5001 46.0001 37.2001C45.0001 38.9001 44.1001 40.5001 43.3001 42.2001C42.0001 39.3001 41.0001 36.5001 40.2001 33.8001ZM45.7001 47.5001C47.0001 44.8001 48.4001 42.1001 50.0001 39.4001C51.5001 36.8001 53.2001 34.2001 54.9001 31.6001C57.9001 31.4001 60.9001 31.3001 64.0001 31.3001C67.2001 31.3001 70.2001 31.4001 73.1001 31.6001C74.9001 34.2001 76.5001 36.8001 78.0001 39.4001C79.6001 42.1001 81.0001 44.8001 82.3001 47.5001C81.0001 50.2001 79.6001 52.9001 78.0001 55.6001C76.5001 58.2001 74.8001 60.8001 73.1001 63.4001C70.1001 63.6001 67.1001 63.7001 64.0001 63.7001C60.8001 63.7001 57.8001 63.6001 54.9001 63.4001C53.1001 60.8001 51.5001 58.2001 50.0001 55.6001C48.4001 52.9001 47.0001 50.2001 45.7001 47.5001ZM84.8001 42.1001L82.1001 37.1001C81.1001 35.4001 80.2001 33.8001 79.1001 32.2001C82.2001 32.6001 85.1001 33.1001 87.9001 33.7001C87.0001 36.5001 86.0001 39.3001 84.8001 42.1001ZM84.8001 52.9001C86.0001 55.7001 87.0001 58.5001 87.9001 61.2001C85.1001 61.8001 82.2001 62.3001 79.1001 62.7001C80.1001 61.1001 81.1001 59.5001 82.1001 57.8001C83.0001 56.3001 83.9001 54.6001 84.8001 52.9001ZM87.1001 87.6001C86.3001 88.1001 85.3001 88.3001 84.2001 88.3001C79.3001 88.3001 73.2001 84.3001 67.2001 78.3001C70.1001 75.2001 72.9001 71.7001 75.7001 67.8001C80.4001 67.4001 84.9001 66.7001 89.1001 65.7001C89.6001 67.5001 89.9001 69.3001 90.2001 71.1001C91.6001 79.6001 90.5001 85.7001 87.1001 87.6001ZM92.3001 34.9001C103.5 38.1001 110.2 43.0001 110.2 47.5001C110.2 51.4001 105.6 55.3001 97.5001 58.4001C95.9001 59.0001 94.1001 59.6001 92.3001 60.1001C91.0001 56.0001 89.4001 51.8001 87.4001 47.5001C89.4001 43.2001 91.1001 39.0001 92.3001 34.9001ZM84.3001 6.7001C85.4001 6.7001 86.3001 6.9001 87.2001 7.4001C90.5001 9.3001 91.7001 15.3001 90.3001 23.9001C90.0001 25.6001 89.6001 27.4001 89.2001 29.3001C85.0001 28.4001 80.5001 27.7001 75.8001 27.2001C73.1001 23.3001 70.2001 19.8001 67.3001 16.7001C73.3001 10.8001 79.4001 6.7001 84.3001 6.7001ZM69.6001 26.8001C67.8001 26.7001 65.9001 26.7001 64.0001 26.7001C62.1001 26.7001 60.2001 26.7001 58.4001 26.8001C60.2001 24.4001 62.1001 22.2001 64.0001 20.1001C65.9001 22.2001 67.8001 24.5001 69.6001 26.8001ZM40.9001 7.4001C41.7001 6.9001 42.7001 6.7001 43.8001 6.7001C48.7001 6.7001 54.8001 10.7001 60.8001 16.7001C57.9001 19.8001 55.1001 23.3001 52.3001 27.2001C47.6001 27.6001 43.1001 28.3001 38.9001 29.3001C38.4001 27.5001 38.1001 25.7001 37.8001 23.9001C36.4001 15.4001 37.5001 9.4001 40.9001 7.4001ZM35.7001 60.1001C24.5001 56.9001 17.8001 52.0001 17.8001 47.5001C17.8001 43.6001 22.4001 39.7001 30.5001 36.6001C32.1001 36.0001 33.9001 35.4001 35.7001 34.9001C37.0001 39.0001 38.6001 43.2001 40.6001 47.5001C38.6001 51.8001 36.9001 56.1001 35.7001 60.1001ZM37.8001 71.1001C38.1001 69.4001 38.5001 67.6001 38.9001 65.7001C43.1001 66.6001 47.6001 67.3001 52.3001 67.8001C55.0001 71.7001 57.9001 75.2001 60.8001 78.3001C54.8001 84.2001 48.7001 88.3001 43.8001 88.3001C42.7001 88.3001 41.8001 88.1001 40.9001 87.6001C37.5001 85.7001 36.4001 79.6001 37.8001 71.1001ZM33.6001 112.3C35.8001 109.6 35.9001 106.6 34.7001 103.6C33.5001 100.6 31.0001 99.2001 27.9001 99.1001C24.2001 99.0001 20.4001 99.1001 16.7001 99.1001H16.0001V125H19.0001V115.2H23.7001C24.3001 115.2 24.8001 115.4 25.1001 115.9L31.1001 125.2C31.2001 125.4 31.5001 125.7 31.7001 125.7H35.6001C33.2001 122 30.9001 118.5 28.5001 114.9C30.6001 114.6 32.4001 113.9 33.6001 112.3ZM19.0001 112.1V102.2H20.1001C22.4001 102.2 24.8001 102.1 27.1001 102.3C29.8001 102.4 31.7001 104.5 31.7001 107.2C31.7001 109.9 29.5001 112 26.8001 112.1C24.4001 112.2 22.0001 112.1 19.0001 112.1ZM57.7001 113.4C56.1001 106.4 49.7001 104.6 44.8001 106.8C41.0001 108.5 39.3001 111.8 39.2001 115.9C39.1001 119 40.0001 121.8 42.4001 123.9C45.1001 126.3 48.4001 126.6 51.8001 126C53.7001 125.6 55.4001 124.7 56.7001 123.3C56.2001 122.6 55.7001 121.9 55.2001 121.3C52.4001 123.7 49.3001 124.5 45.9001 122.9C43.7001 121.8 42.6001 119.1 42.4001 117.1H57.9001V115.8C58.0001 114.9 57.9001 114.1 57.7001 113.4ZM42.6001 115C42.3001 112 45.3001 108.8 48.6001 108.8C52.4001 108.7 54.8001 111 54.9001 115H42.6001ZM73.3001 106.3C71.8001 106 70.2001 105.9 68.7001 106C66.3001 106.2 64.2001 107.3 62.5001 109.1C63.0001 109.8 63.4001 110.5 64.0001 111.3C64.2001 111.1 64.4001 110.9 64.6001 110.8C66.2001 109.3 68.1001 108.5 70.4001 108.7C72.2001 108.8 73.9001 109.4 74.4001 111.2C74.8001 112.6 74.7001 114.1 74.8001 115.6C74.5001 115.6 74.4001 115.5 74.3001 115.4C71.9001 113.4 69.2001 113 66.3001 113.7C63.6001 114.4 61.9001 116.5 61.7001 119.2C61.5001 122.3 62.9001 124.6 65.6001 125.7C67.3001 126.4 69.2001 126.4 71.0001 126C72.4001 125.7 73.0001 124.9 75.0001 123.8V125.1H77.8001C77.8001 121.1 77.9001 116.2 77.8001 111.6C77.8001 108.7 76.1001 106.9 73.3001 106.3ZM74.7001 118.9C74.6001 119.2 74.7001 119.5 74.7001 119.8C74.7001 121.9 74.2001 122.6 72.2001 123.4C70.8001 123.9 69.3001 124.1 67.8001 123.6C66.1001 123.1 64.9001 121.6 64.9001 119.9C64.8001 118.2 65.9001 116.5 67.6001 116C69.9001 115.2 72.0001 115.7 73.9001 117.1C74.5001 117.6 74.9001 118.1 74.7001 118.9ZM90.3001 109C92.9001 108.2 95.3001 108.7 97.1001 110.9L97.4001 111.1C98.1001 110.5 98.7001 109.9 99.5001 109.2C99.2001 108.9 99.1001 108.7 98.9001 108.4C96.0001 105.3 90.3001 104.9 86.8001 107.4C81.9001 111 82.0001 118 84.4001 121.7C86.7001 125.2 90.0001 126.4 93.9001 125.9C96.2001 125.6 98.1001 124.5 99.6001 122.6C98.9001 122 98.2001 121.4 97.5001 120.7C97.3001 120.9 97.2001 121 97.1001 121.2C94.4001 124.2 89.9001 123.9 87.5001 120.7C86.1001 118.8 85.8001 116.6 86.2001 114.4C86.4001 111.9 87.7001 109.9 90.3001 109ZM111.1 122.6C110.9 122.7 110.8 122.8 110.8 122.8C110 123.4 109.2 123.5 108.3 123.2C107.4 122.8 107.3 122 107.2 121.2V109.8C107.2 109.6 107.2 110 107.3 109H111.1V106H107.1V101H104.1V106.4H101.5C101.3 106.4 101 106.6 101 106.8C100.9 107.5 101 108 101 109H104.2V121.8C104.2 123.4 104.6 124.8 106 125.6C107.5 126.5 110.4 126.3 111.7 125.2C111.9 125.1 112 124.7 112 124.6C111.7 124 111.4 123.3 111.1 122.6Z" fill="#FEFCE1"/>
</svg>
