<svg width="128" height="128" viewBox="0 0 128 128" fill="none" xmlns="http://www.w3.org/2000/svg">
<path d="M45.7729 71.3791L47.0389 68.4341C48.4059 69.4571 50.2189 69.9881 52.0119 69.9881C53.3399 69.9881 54.1719 69.4771 54.1719 68.6991C54.1519 66.5351 46.2419 68.2301 46.1839 62.7931C46.1639 60.0351 48.6089 57.9061 52.0739 57.9061C54.1329 57.9061 56.1909 58.4181 57.6599 59.5861L56.4769 62.5901C55.1329 61.7301 53.4609 61.1171 51.8709 61.1171C50.7889 61.1171 50.0779 61.6291 50.0779 62.2811C50.0979 64.4061 58.0659 63.2421 58.1479 68.4341C58.1479 71.2541 55.7659 73.2381 52.3399 73.2381C49.8319 73.2381 47.5269 72.6451 45.7729 71.3781M94.2729 67.3711C93.8777 68.0757 93.2598 68.6292 92.5161 68.9447C91.7723 69.2602 90.9449 69.3199 90.1636 69.1142C89.3823 68.9086 88.6915 68.4494 88.1994 67.8087C87.7073 67.1679 87.4419 66.3819 87.4449 65.5741C87.4436 65.094 87.537 64.6184 87.7197 64.1744C87.9025 63.7305 88.1711 63.327 88.51 62.987C88.849 62.647 89.2517 62.3773 89.6951 62.1931C90.1384 62.009 90.6138 61.9142 91.0939 61.9141C92.4569 61.9141 93.6409 62.6721 94.2739 63.7741L97.7579 61.8321C96.4529 59.5041 93.9449 57.9061 91.0939 57.9061C86.8709 57.9061 83.4489 61.3441 83.4489 65.5741C83.4489 69.8041 86.8709 73.2381 91.0939 73.2381C92.4546 73.241 93.791 72.8781 94.9634 72.1874C96.1357 71.4968 97.1009 70.5037 97.7579 69.3121L94.2729 67.3721V67.3711ZM59.9019 51.5501H64.2659V72.9531H59.9019V51.5511V51.5501ZM99.4729 51.5501V72.9531H103.832V66.5351L109.012 72.9531H114.598L108.012 65.3281L114.109 58.2151H108.766L103.832 64.1211V51.5511H99.4719L99.4729 51.5501ZM77.2299 67.4141C76.5979 68.4571 75.2929 69.2301 73.8239 69.2301C73.3442 69.2298 72.8693 69.135 72.4263 68.9511C71.9833 68.7672 71.5809 68.4977 71.2421 68.1582C70.9033 67.8186 70.6347 67.4156 70.4518 66.9722C70.2688 66.5288 70.1751 66.0537 70.1759 65.5741C70.1749 65.0942 70.2686 64.6188 70.4514 64.1751C70.6343 63.7314 70.9028 63.3281 71.2416 62.9882C71.5803 62.6484 71.9828 62.3785 72.4258 62.1942C72.8689 62.0099 73.344 61.9147 73.8239 61.9141C75.2929 61.9141 76.5979 62.7301 77.2299 63.7931V67.4141ZM77.2299 58.2141V59.9541C76.5159 58.7461 74.7419 57.9061 72.8869 57.9061C69.0549 57.9061 66.0389 61.3011 66.0389 65.5511C66.0389 69.8051 69.0549 73.2381 72.8869 73.2381C74.7419 73.2381 76.5159 72.3981 77.2299 71.1951V72.9341H81.5939V58.2141H77.2299ZM18.8049 67.3901C18.8049 68.8831 17.6019 70.0901 16.1129 70.0901C15.7588 70.0898 15.4082 70.0197 15.0813 69.8838C14.7543 69.7479 14.4574 69.5489 14.2074 69.2981C13.9575 69.0473 13.7595 68.7497 13.6247 68.4223C13.4899 68.0949 13.4209 67.7441 13.4219 67.3901C13.4212 67.0363 13.4903 66.6859 13.6253 66.3589C13.7602 66.0319 13.9584 65.7347 14.2083 65.4844C14.4583 65.234 14.7552 65.0355 15.082 64.9C15.4088 64.7646 15.7591 64.6949 16.1129 64.6951H18.8049V67.3911V67.3901ZM20.1479 67.3901C20.1472 67.0362 20.2164 66.6857 20.3514 66.3586C20.4864 66.0316 20.6846 65.7343 20.9347 65.484C21.1847 65.2337 21.4818 65.0351 21.8087 64.8997C22.1356 64.7643 22.486 64.6948 22.8399 64.6951C23.1937 64.6949 23.5441 64.7646 23.871 64.9001C24.1979 65.0356 24.4948 65.2343 24.7448 65.4847C24.9947 65.7352 25.1928 66.0324 25.3277 66.3596C25.4626 66.6867 25.5317 67.0372 25.5309 67.3911V74.1371C25.5317 74.491 25.4626 74.8417 25.3278 75.169C25.1929 75.4963 24.9949 75.7938 24.7449 76.0445C24.495 76.2951 24.1981 76.4941 23.8712 76.6299C23.5443 76.7657 23.1939 76.8358 22.8399 76.8361C22.4857 76.8359 22.1351 76.7659 21.808 76.6301C21.4809 76.4943 21.1838 76.2953 20.9338 76.0445C20.6837 75.7937 20.4856 75.496 20.3507 75.1685C20.2159 74.8411 20.1469 74.4902 20.1479 74.1361V67.3911V67.3901ZM22.8399 56.5591C22.4857 56.5589 22.1351 56.4889 21.808 56.3531C21.4809 56.2173 21.1838 56.0183 20.9338 55.7675C20.6837 55.5167 20.4856 55.219 20.3507 54.8915C20.2159 54.5641 20.1469 54.2132 20.1479 53.8591C20.1472 53.5052 20.2164 53.1547 20.3514 52.8276C20.4864 52.5006 20.6846 52.2033 20.9347 51.953C21.1847 51.7027 21.4818 51.5041 21.8087 51.3687C22.1356 51.2333 22.486 51.1638 22.8399 51.1641C23.1936 51.1639 23.5439 51.2336 23.8707 51.369C24.1976 51.5045 24.4944 51.703 24.7444 51.9534C24.9944 52.2037 25.1925 52.5009 25.3274 52.8279C25.4624 53.1549 25.5315 53.5053 25.5309 53.8591V56.5591H22.8399ZM22.8399 57.9301C23.1936 57.9299 23.5439 57.9996 23.8707 58.135C24.1976 58.2705 24.4944 58.469 24.7444 58.7194C24.9944 58.9697 25.1925 59.2669 25.3274 59.5939C25.4624 59.9209 25.5315 60.2713 25.5309 60.6251C25.5309 62.1171 24.3279 63.3251 22.8399 63.3251H16.0939C15.7397 63.3249 15.3891 63.2549 15.062 63.1191C14.7349 62.9833 14.4378 62.7843 14.1878 62.5335C13.9377 62.2827 13.7396 61.985 13.6047 61.6575C13.4699 61.3301 13.4009 60.9792 13.4019 60.6251C13.4012 60.2712 13.4704 59.9207 13.6054 59.5936C13.7404 59.2666 13.9386 58.9693 14.1887 58.719C14.4388 58.4687 14.7358 58.2701 15.0627 58.1347C15.3896 57.9993 15.74 57.9298 16.0939 57.9301H22.8399ZM33.6249 60.6251C33.6242 60.2713 33.6933 59.9209 33.8283 59.5939C33.9632 59.2669 34.1614 58.9697 34.4113 58.7194C34.6613 58.469 34.9582 58.2705 35.285 58.135C35.6118 57.9996 35.9621 57.9299 36.3159 57.9301C36.6697 57.9298 37.0201 57.9993 37.3471 58.1347C37.674 58.2701 37.971 58.4687 38.221 58.719C38.4711 58.9693 38.6693 59.2666 38.8043 59.5936C38.9394 59.9207 39.0085 60.2712 39.0079 60.6251C39.0079 62.1171 37.8049 63.3251 36.3159 63.3251H33.6249V60.6251ZM32.2809 60.6251C32.2809 62.1171 31.0779 63.3251 29.5899 63.3251C29.2357 63.3249 28.8851 63.2549 28.558 63.1191C28.2309 62.9833 27.9338 62.7843 27.6838 62.5335C27.4337 62.2827 27.2356 61.985 27.1007 61.6575C26.9659 61.3301 26.8969 60.9792 26.8979 60.6251V53.8591C26.8972 53.5052 26.9664 53.1547 27.1014 52.8276C27.2364 52.5006 27.4346 52.2033 27.6847 51.953C27.9347 51.7027 28.2318 51.5041 28.5587 51.3687C28.8856 51.2333 29.236 51.1638 29.5899 51.1641C29.9436 51.1639 30.2939 51.2336 30.6207 51.369C30.9476 51.5045 31.2444 51.703 31.4944 51.9534C31.7444 52.2037 31.9425 52.5009 32.0774 52.8279C32.2124 53.1549 32.2815 53.5053 32.2809 53.8591V60.6251ZM29.5899 71.4411C29.9437 71.4409 30.2941 71.5106 30.621 71.6461C30.9479 71.7816 31.2448 71.9803 31.4948 72.2307C31.7447 72.4812 31.9428 72.7784 32.0777 73.1056C32.2126 73.4327 32.2817 73.7832 32.2809 74.1371C32.2817 74.491 32.2126 74.8417 32.0778 75.169C31.9429 75.4963 31.7449 75.7938 31.4949 76.0445C31.245 76.2951 30.9481 76.4941 30.6212 76.6299C30.2943 76.7657 29.9439 76.8358 29.5899 76.8361C29.2357 76.8359 28.8851 76.7659 28.558 76.6301C28.2309 76.4943 27.9338 76.2953 27.6838 76.0445C27.4337 75.7937 27.2356 75.496 27.1007 75.1685C26.9659 74.8411 26.8969 74.4902 26.8979 74.1361V71.4411H29.5899ZM29.5899 70.0901C29.2357 70.0899 28.8851 70.0199 28.558 69.8841C28.2309 69.7483 27.9338 69.5493 27.6838 69.2985C27.4337 69.0477 27.2356 68.75 27.1007 68.4225C26.9659 68.0951 26.8969 67.7442 26.8979 67.3901C26.8972 67.0362 26.9664 66.6857 27.1014 66.3586C27.2364 66.0316 27.4346 65.7343 27.6847 65.484C27.9347 65.2337 28.2318 65.0351 28.5587 64.8997C28.8856 64.7643 29.236 64.6948 29.5899 64.6951H36.3359C36.6897 64.6949 37.0401 64.7646 37.367 64.9001C37.6939 65.0356 37.9908 65.2343 38.2408 65.4847C38.4907 65.7352 38.6888 66.0324 38.8237 66.3596C38.9586 66.6867 39.0277 67.0372 39.0269 67.3911C39.0277 67.745 38.9586 68.0957 38.8238 68.423C38.6889 68.7503 38.4909 69.0478 38.2409 69.2985C37.991 69.5491 37.6941 69.7481 37.3672 69.8839C37.0403 70.0197 36.6898 70.0898 36.3359 70.0901H29.5899Z" fill="#FEFCE1"/>
</svg>
