<svg width="128" height="128" viewBox="0 0 128 128" fill="none" xmlns="http://www.w3.org/2000/svg">
<path fill-rule="evenodd" clip-rule="evenodd" d="M34.0998 71.264C33.0068 71.264 31.9558 71.118 30.9448 70.824C29.9348 70.53 29.0948 70.124 28.4258 69.605L29.4498 67.332C30.8428 68.302 32.4058 68.786 34.1398 68.786C35.0408 68.786 35.7338 68.639 36.2188 68.346C36.7038 68.052 36.9458 67.646 36.9458 67.127C36.9458 66.663 36.7238 66.301 36.2798 66.042C35.8368 65.782 35.0478 65.53 33.9148 65.284C32.6448 65.024 31.6308 64.711 30.8738 64.342C30.1158 63.973 29.5628 63.52 29.2138 62.98C28.8658 62.44 28.6928 61.775 28.6928 60.983C28.6928 60.11 28.9348 59.331 29.4188 58.649C29.9038 57.966 30.5828 57.43 31.4568 57.041C32.3308 56.651 33.3408 56.457 34.4878 56.457C35.5118 56.457 36.4978 56.607 37.4478 56.907C38.3968 57.208 39.1508 57.611 39.7108 58.117L38.6868 60.389C37.3618 59.42 35.9698 58.935 34.5088 58.935C33.6758 58.935 33.0208 59.095 32.5428 59.417C32.0648 59.737 31.8258 60.177 31.8258 60.737C31.8258 61.065 31.9178 61.335 32.1018 61.547C32.2868 61.758 32.5938 61.946 33.0238 62.11C33.4538 62.274 34.0648 62.444 34.8568 62.622C36.7138 63.032 38.0478 63.557 38.8608 64.199C39.6728 64.84 40.0788 65.728 40.0788 66.861C40.0788 68.226 39.5538 69.301 38.5018 70.087C37.4518 70.872 35.9828 71.264 34.0988 71.264H34.0998ZM47.4928 68.971C47.8068 68.971 48.1348 68.951 48.4758 68.909L48.3118 71.162C47.9181 71.2165 47.5212 71.2439 47.1238 71.244C45.5948 71.244 44.4788 70.909 43.7758 70.24C43.0728 69.571 42.7208 68.554 42.7208 67.189V63.339H40.8168V61.024H42.7208V58.075H45.8138V61.025H48.3328V63.339H45.8128V67.169C45.8128 68.369 46.3728 68.971 47.4928 68.971ZM54.6818 71.244C53.6168 71.244 52.6818 71.029 51.8758 70.599C51.089 70.1874 50.4408 69.5534 50.0118 68.776C49.5748 67.991 49.3568 67.066 49.3568 66.001C49.3568 64.936 49.5748 64.011 50.0118 63.226C50.4392 62.45 51.0882 61.8188 51.8758 61.413C52.6808 60.99 53.6158 60.779 54.6818 60.779C55.7468 60.779 56.6818 60.99 57.4868 61.413C58.2744 61.8188 58.9233 62.45 59.3508 63.226C59.7878 64.011 60.0058 64.936 60.0058 66.001C60.0058 67.066 59.7878 67.991 59.3508 68.776C58.9218 69.5535 58.2736 70.1875 57.4868 70.599C56.6818 71.029 55.7468 71.244 54.6818 71.244ZM54.6818 68.889C56.1838 68.889 56.9338 67.926 56.9338 66.001C56.9338 65.031 56.7398 64.308 56.3508 63.831C55.9608 63.352 55.4048 63.113 54.6808 63.113C53.1798 63.113 52.4288 64.076 52.4288 66.001C52.4288 67.926 53.1788 68.889 54.6818 68.889ZM68.5668 63.319L66.8268 63.502C65.9668 63.584 65.3588 63.827 65.0038 64.229C64.6478 64.632 64.4708 65.169 64.4708 65.837V71.08H61.3778V61.024H64.3478V62.724C64.8528 61.564 65.8978 60.929 67.4818 60.82L68.3818 60.758L68.5668 63.318V63.319ZM77.5528 61.045H80.5828L74.5218 74.766H71.3878L73.3128 70.527L69.1758 61.045H72.3918L74.9318 67.435L77.5518 61.045H77.5528ZM87.7518 60.778C88.6258 60.778 89.3968 60.99 90.0658 61.413C90.7348 61.837 91.2568 62.441 91.6328 63.226C92.0078 64.011 92.1958 64.922 92.1958 65.96C92.1958 66.998 92.0078 67.916 91.6328 68.715C91.2568 69.513 90.7318 70.135 90.0558 70.578C89.3798 71.022 88.6118 71.244 87.7518 71.244C87.0548 71.244 86.4268 71.097 85.8678 70.804C85.3078 70.51 84.8778 70.104 84.5778 69.584V71.08H81.5258V56.642H84.6178V62.376C84.9178 61.871 85.3448 61.478 85.8978 61.198C86.4736 60.9127 87.1092 60.7688 87.7518 60.778ZM86.8508 68.888C87.5738 68.888 88.1338 68.633 88.5298 68.121C88.9258 67.609 89.1238 66.888 89.1238 65.96C89.1238 65.045 88.9258 64.346 88.5298 63.86C88.1338 63.376 87.5738 63.134 86.8498 63.134C86.1268 63.134 85.5668 63.383 85.1708 63.881C84.7748 64.38 84.5768 65.086 84.5768 66.001C84.5768 66.929 84.7748 67.643 85.1708 68.141C85.5668 68.639 86.1268 68.889 86.8508 68.889V68.888ZM98.9128 71.244C97.8478 71.244 96.9128 71.029 96.1078 70.599C95.321 70.1874 94.6728 69.5534 94.2438 68.776C93.8068 67.991 93.5878 67.066 93.5878 66.001C93.5878 64.936 93.8068 64.011 94.2438 63.226C94.6712 62.45 95.3202 61.8188 96.1078 61.413C96.9128 60.99 97.8478 60.779 98.9128 60.779C99.9778 60.779 100.913 60.99 101.719 61.413C102.506 61.8187 103.155 62.4499 103.583 63.226C104.02 64.011 104.238 64.936 104.238 66.001C104.238 67.066 104.02 67.991 103.583 68.776C103.154 69.5535 102.506 70.1875 101.719 70.599C100.913 71.029 99.9788 71.244 98.9128 71.244ZM98.9128 68.889C100.415 68.889 101.166 67.926 101.166 66.001C101.166 65.031 100.972 64.308 100.582 63.831C100.193 63.352 99.6368 63.113 98.9128 63.113C97.4108 63.113 96.6608 64.076 96.6608 66.001C96.6608 67.926 97.4108 68.889 98.9128 68.889ZM110.444 71.244C109.379 71.244 108.443 71.029 107.638 70.599C106.851 70.1875 106.203 69.5535 105.774 68.776C105.337 67.991 105.119 67.066 105.119 66.001C105.119 64.936 105.337 64.011 105.774 63.226C106.201 62.4499 106.85 61.8187 107.638 61.413C108.443 60.99 109.379 60.779 110.444 60.779C111.508 60.779 112.444 60.99 113.249 61.413C114.036 61.8187 114.685 62.4499 115.113 63.226C115.55 64.011 115.768 64.936 115.768 66.001C115.768 67.066 115.55 67.991 115.113 68.776C114.684 69.5535 114.036 70.1875 113.249 70.599C112.444 71.029 111.508 71.244 110.444 71.244ZM110.444 68.889C111.945 68.889 112.696 67.926 112.696 66.001C112.696 65.031 112.502 64.308 112.113 63.831C111.724 63.352 111.167 63.113 110.444 63.113C108.942 63.113 108.191 64.076 108.191 66.001C108.191 67.926 108.942 68.889 110.444 68.889ZM128 71.08H124.211L120.361 66.595V71.08H117.268V56.642H120.361V65.325L124.068 61.045H127.754L123.535 65.837L128 71.08Z" fill="#FEFCE1"/>
<path d="M19.183 51.002L17.762 51.092L17.872 54.046C17.873 54.0824 17.8637 54.1184 17.8451 54.1497C17.8264 54.1811 17.7993 54.2064 17.7668 54.2229C17.7343 54.2394 17.6978 54.2462 17.6615 54.2427C17.6252 54.2392 17.5907 54.2254 17.562 54.203L16.61 53.453L15.483 54.308C15.454 54.33 15.4194 54.3433 15.3832 54.3464C15.3469 54.3495 15.3106 54.3422 15.2783 54.3255C15.246 54.3087 15.2192 54.2831 15.2009 54.2517C15.1826 54.2203 15.1736 54.1843 15.175 54.148L15.302 51.245L1.20695 52.125C0.871482 52.1462 0.55757 52.2976 0.332242 52.547C0.106913 52.7965 -0.0119775 53.1241 0.000954511 53.46L0.793955 74.593C0.805941 74.916 0.939008 75.2226 1.16671 75.452C1.39441 75.6814 1.70007 75.8167 2.02295 75.831L19.205 76.603C19.3786 76.6106 19.552 76.5829 19.7147 76.5217C19.8775 76.4605 20.0261 76.367 20.1518 76.2469C20.2774 76.1267 20.3774 75.9824 20.4459 75.8226C20.5143 75.6628 20.5497 75.4908 20.55 75.317V52.287C20.55 52.1112 20.5141 51.9373 20.4443 51.7759C20.3746 51.6145 20.2725 51.4692 20.1444 51.3488C20.0164 51.2284 19.865 51.1355 19.6996 51.0758C19.5342 51.0162 19.3584 50.9911 19.183 51.002ZM10.663 55.356C14.013 55.356 15.844 57.149 15.844 60.559C15.391 60.911 12.018 61.151 12.018 60.651C12.088 58.74 11.233 58.656 10.758 58.656C10.306 58.656 9.54595 58.792 9.54595 59.816C9.54595 62.341 16.058 62.205 16.058 67.301C16.058 70.167 13.728 71.751 10.758 71.751C7.69195 71.751 5.01295 70.511 5.31495 66.21C5.43495 65.705 9.33195 65.825 9.33195 66.21C9.28395 67.984 9.68795 68.506 10.71 68.506C11.494 68.506 11.851 68.074 11.851 67.346C11.851 64.752 5.43395 64.662 5.43395 59.906C5.43395 57.176 7.31195 55.356 10.663 55.356Z" fill="#FEFCE1"/>
</svg>
